<?xml version="1.0" encoding="utf-8"?>
<!-- Generator: Adobe Illustrator 25.2.1, SVG Export Plug-In . SVG Version: 6.00 Build 0)  -->
<svg version="1.1" id="Layer_1" xmlns="http://www.w3.org/2000/svg" xmlns:xlink="http://www.w3.org/1999/xlink" x="0px" y="0px"
	 viewBox="0 0 176.8 91.1" style="enable-background:new 0 0 176.8 91.1;" xml:space="preserve">
<g>
	<path d="M33.6,18.9c-0.7-0.1-1.6-0.2-2.8-0.2c-2.3,0-5.1,0.4-7.5,2.3c-2.6,2-3.9,5.3-3.9,9.6c0,0.2,0,0.4,0,0.6h0
		c0,3.1-0.8,5.4-2.5,6.7c-3,2.4-8,1.2-8,1.2c0,0,0,3,0,3.7c0.7,0.1,1.6,0.2,2.8,0.2c2.3,0,5.1-0.4,7.5-2.3c2.6-2,3.9-5.2,3.9-9.5h0
		c0-0.2,0-0.4,0-0.6c0-3.1,0.8-5.4,2.5-6.7c3-2.4,8-1.2,8-1.2C33.6,22.6,33.6,19.6,33.6,18.9z"/>
	<path d="M145.3,62c-0.7-0.1-1.6-0.2-2.8-0.2c-2.3,0-5.1,0.4-7.5,2.3c-2.6,2-3.9,5.3-3.9,9.6c0,0.2,0,0.4,0,0.6h0
		c0,3.1-0.8,5.4-2.5,6.7c-3,2.4-8,1.2-8,1.2c0,0,0,3,0,3.7c0.7,0.1,1.6,0.2,2.8,0.2c2.3,0,5.1-0.4,7.5-2.3c2.6-2,3.9-5.2,3.9-9.5h0
		c0-0.2,0-0.4,0-0.6c0-3.1,0.8-5.4,2.5-6.7c3-2.4,8-1.2,8-1.2C145.3,65.7,145.3,62.7,145.3,62z"/>
	<g>
		<path d="M12.7,85.9c0-0.4,0-0.8,0-1.2c0-3.3,0-6.7,0-10c0-0.8,0-1.6,0.1-2.3c0.4-2.6,1.7-4.6,4.1-5.8c1.5-0.8,3.2-0.9,4.9-1
			c0.4,0,0.8,0,1.2-0.1c0-1.3,0-2.4,0-3.6c-4.2-0.5-7.6,0.9-10.2,4.3c-0.1-0.1-0.1-0.1-0.2-0.2c0-1.4,0-2.8,0-4.2
			c-1.3,0-2.4,0-3.6,0c0,8,0,16,0,24C10.3,85.9,11.4,85.9,12.7,85.9z"/>
		<path d="M12.7,85.9c-1.3,0-2.4,0-3.6,0c0-8,0-15.9,0-24c1.2,0,2.3,0,3.6,0c0,1.4,0,2.8,0,4.2c0.1,0.1,0.1,0.1,0.2,0.2
			c2.6-3.5,5.9-4.9,10.2-4.3c0,1.2,0,2.3,0,3.6c-0.4,0-0.8,0.1-1.2,0.1c-1.7,0-3.3,0.2-4.9,1c-2.4,1.2-3.7,3.2-4.1,5.8
			c-0.1,0.8-0.1,1.5-0.1,2.3c0,3.3,0,6.7,0,10C12.7,85.1,12.7,85.5,12.7,85.9z"/>
	</g>
	<g>
		<path d="M30.4,85.9c0.7,0,1.3,0,1.9,0c0.6,0,1.1,0,1.7,0c0.2-1.4,0.2-23.3-0.1-24c-1.9,0-3.8,0-5.8,0c0,0.6,0,1.2,0,1.7
			c0,0.6,0,1.1,0,1.7c0.8,0,1.5,0.1,2.3,0.1C30.4,72.3,30.4,79,30.4,85.9z M29.3,54.1c0,1.6,1.2,2.8,2.7,2.7c1.5,0,2.7-1.3,2.7-2.8
			c0-1.5-1.3-2.8-2.8-2.8C30.5,51.3,29.3,52.5,29.3,54.1z"/>
		<path d="M30.4,85.9c0-6.9,0-13.6,0-20.4c-0.8,0-1.5-0.1-2.3-0.1c0-0.6,0-1.2,0-1.7c0-0.5,0-1.1,0-1.7c2,0,5.9,0,5.9,0v24
			c0,0-1.2,0-1.8,0C31.7,85.9,31.2,85.9,30.4,85.9z"/>
		<path d="M29.3,54.1c0-1.6,1.1-2.8,2.7-2.8c1.4,0,2.7,1.3,2.8,2.8c0,1.5-1.2,2.8-2.7,2.8C30.5,56.9,29.3,55.7,29.3,54.1z"/>
	</g>
	<g>
		<g>
			<path d="M115.5,85.9c-1.2,0-2.5,0-3.6,0c0-12.6,0-25.1,0-37.6c1.1,0,2.4,0,3.6,0C115.5,60.8,115.5,73.3,115.5,85.9z"/>
		</g>
	</g>
	<g>
		<g>
			<path d="M141.7,29.7c0-0.7,0-1.5,0-2.2c0-0.7,0-1.5-0.1-2.2c0-0.3-0.1-0.6-0.1-1c-0.1-0.6-0.3-1.2-0.5-1.7
				c-0.1-0.3-0.3-0.5-0.4-0.8c-0.3-0.5-0.7-1-1.1-1.4c-0.4-0.4-1-0.8-1.5-1.1c-0.9-0.5-1.9-0.9-2.8-1c-0.2,0-0.4-0.1-0.6-0.1
				c-1.4-0.2-2.8,0-4.2,0.5c-0.8,0.3-1.5,0.6-2.2,1c-0.3,0.2-0.6,0.4-0.9,0.7c-0.3,0.2-0.6,0.5-0.8,0.8c-1,1.1-1.6,2.5-1.9,4.2
				c0,0.2-0.1,0.4-0.1,0.6c-0.1,0.1-0.2,0.1-0.3,0.2c-0.1,0.1-0.2,0.1-0.2,0.2c-0.3,0.2-0.6,0.5-0.9,0.7c-1.2,1-1.9,2.2-2.4,3.6
				c-0.1,0.2-0.1,0.4-0.2,0.6c-0.1,0.2-0.1,0.4-0.2,0.7c0,0.3-0.1,0.5-0.1,0.8c0,0.3,0,0.7,0,1c0,0.3,0,0.7,0.1,1
				c0,0.2,0,0.3,0.1,0.5c0.4,2.2,1.6,4.2,3.5,5.5c0.6,0.4,1.3,0.8,2,1.1c0.3,0.1,0.6,0.2,0.8,0.3c0.3,0.1,0.6,0.2,0.9,0.3
				c1,0.3,2,0.4,3.1,0.4c2.2,0,4.3,0,6.5,0c1.3,0,4.6-0.1,4.8-0.1C141.7,42.4,141.7,31.7,141.7,29.7z M134.1,22.1
				c2.6,0.4,4.2,2.7,3.7,4.9c-2.8-1.9-5.8-2.5-9-2.5C129.3,22.9,131.9,21.8,134.1,22.1z M137.8,39.2c-1.5,0-2.8,0-4.2,0
				c-1.5,0-3.1-0.1-4.6-0.2c-1.1-0.1-2.1-0.5-3-1.2c-2.7-1.9-3.4-6.5,0.4-8.6c1.9-1.1,4-1.1,6-0.5c0.9,0.2,1.9,0.7,2.7,1.2
				c1.8,1.2,2.7,2.9,2.7,5C137.9,36.3,137.8,37.7,137.8,39.2z"/>
		</g>
	</g>
	<g>
		<g>
			<path d="M105.9,72.7c0-0.7,0-1.5,0-2.2c0-0.7,0-1.5-0.1-2.2c0-0.3-0.1-0.6-0.1-1c-0.1-0.6-0.3-1.2-0.5-1.7
				c-0.1-0.3-0.3-0.5-0.4-0.8c-0.3-0.5-0.7-1-1.1-1.4c-0.4-0.4-1-0.8-1.5-1.1c-0.9-0.5-1.9-0.9-2.8-1c-0.2,0-0.4-0.1-0.6-0.1
				c-1.4-0.2-2.8,0-4.2,0.5c-0.8,0.3-1.5,0.6-2.2,1c-0.3,0.2-0.6,0.4-0.9,0.7c-0.3,0.2-0.6,0.5-0.8,0.8c-1,1.1-1.6,2.5-1.9,4.2
				c0,0.2-0.1,0.4-0.1,0.6c-0.1,0.1-0.2,0.1-0.3,0.2c-0.1,0.1-0.2,0.1-0.2,0.2c-0.3,0.2-0.6,0.5-0.9,0.7c-1.2,1-1.9,2.2-2.4,3.6
				c-0.1,0.2-0.1,0.4-0.2,0.6c-0.1,0.2-0.1,0.4-0.2,0.7c0,0.3-0.1,0.5-0.1,0.8c0,0.3,0,0.7,0,1c0,0.3,0,0.7,0.1,1
				c0,0.2,0,0.3,0.1,0.5c0.4,2.2,1.6,4.2,3.5,5.5c0.6,0.4,1.3,0.8,2,1.1c0.3,0.1,0.6,0.2,0.8,0.3c0.3,0.1,0.6,0.2,0.9,0.3
				c1,0.3,2,0.4,3.1,0.4c2.2,0,4.3,0,6.5,0c1.3,0,4.6-0.1,4.8-0.1C105.9,85.4,105.9,74.7,105.9,72.7z M98.3,65.1
				c2.6,0.4,4.2,2.7,3.7,4.9c-2.8-1.9-5.8-2.5-9-2.5C93.5,65.9,96.1,64.7,98.3,65.1z M102,82.1c-1.5,0-2.8,0-4.2,0
				c-1.5,0-3.1-0.1-4.6-0.2c-1.1-0.1-2.1-0.5-3-1.2c-2.7-1.9-3.4-6.5,0.4-8.6c1.9-1.1,4-1.1,6-0.5c0.9,0.2,1.9,0.7,2.7,1.2
				c1.8,1.2,2.7,2.9,2.7,5C102.1,79.3,102,80.6,102,82.1z"/>
		</g>
	</g>
	<g>
		<path d="M91.9,26c0.2-0.4,0.4-0.9,0.6-1.3C92.3,25.2,92.1,25.6,91.9,26z"/>
		<path d="M91.4,27.9c0.1-0.3,0.1-0.6,0.2-0.9C91.5,27.3,91.5,27.6,91.4,27.9z"/>
		<g>
			<path d="M111.1,5.2c0,5.3,0,10.6,0,15.9c-0.1,0-0.1-0.1-0.2-0.1c-0.1,0-0.1-0.1-0.2-0.1c-0.4-0.3-0.9-0.7-1.3-0.9
				c-2-1.3-4-1.8-6.2-1.8c-1.2,0-2.5,0.3-3.7,0.7c-0.6,0.2-1.2,0.4-1.7,0.7c-0.4,0.2-0.8,0.5-1.2,0.7c-0.1,0.1-0.3,0.2-0.4,0.3
				c-0.2,0.2-0.5,0.4-0.7,0.6c-0.2,0.2-0.5,0.4-0.7,0.6s-0.4,0.4-0.6,0.7c-0.6,0.7-1.1,1.5-1.6,2.3c-0.2,0.4-0.4,0.9-0.6,1.3
				c-0.1,0.3-0.2,0.6-0.3,0.9c-0.1,0.3-0.2,0.6-0.2,0.9c-0.2,0.8-0.3,1.6-0.3,2.5c0,0.2,0,0.4,0,0.6c0,0.4,0,0.8,0.1,1.2
				c0,0.2,0,0.4,0.1,0.6c0,0.2,0.1,0.4,0.1,0.5c1.1,5.6,6,9.7,12.1,9.6c1.3,0,2.6,0,3.9,0c0.8,0,1.6,0,2.4,0c1.6,0,3.3,0,5,0
				c0-12.7,0-25.2,0-37.7C113.5,5.2,112.3,5.2,111.1,5.2z M111.1,39.2c-3.1,0-6.3,0.2-9.3-0.1c-3.2-0.3-6.1-2.5-6.9-6.5
				c-0.7-3.4,0.3-6.5,2.9-8.8c3.8-3.3,10.1-2.2,12.5,2.2c0.4,0.8,0.7,1.8,0.8,2.7C111.2,32,111.1,38.7,111.1,39.2z"/>
		</g>
	</g>
	<path d="M56,18.8v13.8c0,2.4-0.6,4-1.8,5.2c-1.2,1.2-3.1,2-4.9,2c-1.8,0-3.6-0.7-4.9-2c-1.2-1.2-1.8-2.8-1.8-5.2V18.8h-3.8v13.8
		c0,3.4,0.9,5.9,2.8,7.8c2,1.9,4.7,3,7.6,3v0c0,0,0,0,0,0s0,0,0,0v0c2.9,0,5.6-1.1,7.6-3c1.9-1.9,2.8-4.3,2.8-7.8V18.8H56z"/>
	<path d="M75.6,61.8v13.8c0,2.4-0.6,4-1.8,5.2c-1.2,1.2-3.1,2-4.9,2c-1.8,0-3.6-0.7-4.9-2c-1.2-1.2-1.8-2.8-1.8-5.2V61.8h-3.8v13.8
		c0,3.4,0.9,5.9,2.8,7.8c2,1.9,4.7,3,7.6,3v0c0,0,0,0,0,0s0,0,0,0v0c2.9,0,5.6-1.1,7.6-3c1.9-1.9,2.8-4.3,2.8-7.8V61.8H75.6z"/>
	<path d="M85.8,40.4c0,0,0-1.9,0-11c0-3.1-1-5.6-2.9-7.4c-3.5-3.3-8.8-3.2-9.4-3.2H66l-0.5,0v24.1H69V22.5l4.4,0l0.1,0
		c0,0,4.3-0.2,6.7,2.1c1.2,1.1,1.8,2.7,1.8,4.7c0,9.2,0,11.1,0,11.1l0,2.5l3.7-0.1L85.8,40.4z"/>
	<g>
		<path d="M49.7,82.1c0,0-0.6-0.3-0.8-0.5c-0.7-0.6-0.9-1.4-0.9-2.2c0-4.4,0-8.8,0-13.2c0-0.2,0.1-0.4,0.1-0.8c1.9,0,2.8,0,4.7,0
			c0-1.2,0-2.3,0-3.5c-2.1,0-3.1,0-5.1,0c1-1.2,1.7-2.4,2.3-3.8c0.6-1.3,0.9-2.7,1.1-4.2c-1.3,0-2.5,0-3.7,0c-0.8,4.6-3,7.7-8,8.1
			c0,1.2,0,2.3,0,3.5c1.7,0,3.2,0,4.9,0c0,0.4,0,0.8,0,1.1c0,4.3,0,8.6,0,12.9c0,1.3,0.4,2.5,1.1,3.5c1.9,2.7,4.7,3.2,8.2,2.7
			c0-1.1,0-2.2,0-3.4c0,0,0,0,0,0C51.1,82.7,49.7,82.1,49.7,82.1z"/>
	</g>
	<path d="M167.9,19.1c0-0.1-0.1-0.2-0.1-0.2c-1.2,0-2.3,0-3.6,0c0,0.5,0,0.9,0,1.3c0,4.5,0.1,9-0.1,13.5c-0.1,3.6-3.1,6.2-6.5,6
		c-3.6-0.2-6.2-2.8-6.2-6.4c0-4.4,0-8.8,0-13.2c0-0.4,0-0.7,0-1.1c-1.3,0-2.5,0-3.7,0c0,5,0,9.9,0,14.8c0,0.7,0.1,1.4,0.2,2.1
		c0.7,3.7,2.9,6.2,6.6,7.2c3.5,1,6.9,0.9,9.6-2.2c-0.2,5-0.2,7.8-2.4,9.7c0,0-1.4,1.2-3.1,1.4c-1.7,0.3-4.4,0.2-4.4,0.2v3.8
		c0.2,0,0.5,0,0.7,0c7.6,0.5,12.9-3.8,12.9-10.9C167.9,36.4,167.9,27.7,167.9,19.1z"/>
</g>
</svg>
